<svg width="119" height="30" viewBox="0 0 119 30" fill="none" xmlns="http://www.w3.org/2000/svg">
<path d="M2.94098 27.8251H28.591V2.17505H2.94098V27.8251ZM23.654 12.532H18.234V7.11205H23.654V12.532ZM7.87698 7.11205H13.3V17.468H23.654V22.8881H7.87698V7.11205ZM45.294 2.17505C42.7574 2.17505 40.2778 2.92723 38.1688 4.33646C36.0597 5.74569 34.4159 7.74868 33.4452 10.0921C32.4745 12.4356 32.2206 15.0142 32.7154 17.502C33.2103 19.9898 34.4317 22.275 36.2253 24.0686C38.0189 25.8623 40.3041 27.0837 42.7919 27.5786C45.2798 28.0734 47.8584 27.8196 50.2019 26.8489C52.5454 25.8782 54.5483 24.2343 55.9576 22.1252C57.3668 20.0161 58.119 17.5365 58.119 15C58.115 11.5998 56.7625 8.34009 54.3582 5.9358C51.9539 3.5315 48.6942 2.17902 45.294 2.17505ZM45.294 22.8881C43.7339 22.8881 42.2088 22.4254 40.9116 21.5586C39.6145 20.6919 38.6034 19.46 38.0064 18.0186C37.4094 16.5773 37.2532 14.9913 37.5575 13.4611C37.8619 11.931 38.6132 10.5255 39.7163 9.42239C40.8195 8.31924 42.225 7.56798 43.7551 7.26362C45.2852 6.95926 46.8712 7.11547 48.3126 7.71249C49.7539 8.30951 50.9859 9.32054 51.8526 10.6177C52.7194 11.9148 53.182 13.4399 53.182 15C53.1788 17.0911 52.3467 19.0956 50.8681 20.5742C49.3895 22.0528 47.385 22.8849 45.294 22.8881ZM104.013 2.17505C101.476 2.17486 98.9967 2.92686 96.8875 4.33597C94.7783 5.74508 93.1344 7.748 92.1635 10.0914C91.1927 12.4348 90.9385 15.0136 91.4333 17.5014C91.928 19.9893 93.1494 22.2746 94.943 24.0683C96.7365 25.862 99.0217 27.0837 101.51 27.5786C103.997 28.0735 106.576 27.8195 108.92 26.8489C111.263 25.8782 113.266 24.2344 114.675 22.1253C116.085 20.0162 116.837 17.5366 116.837 15C116.833 11.6 115.481 8.34041 113.077 5.93615C110.673 3.53188 107.413 2.17929 104.013 2.17505ZM104.013 22.8881C102.453 22.8883 100.928 22.4257 99.6304 21.5591C98.3331 20.6925 97.3219 19.4606 96.7247 18.0193C96.1275 16.578 95.9712 14.9919 96.2754 13.4617C96.5797 11.9316 97.3309 10.526 98.434 9.42275C99.5371 8.31949 100.943 7.56813 102.473 7.26369C104.003 6.95925 105.589 7.1154 107.03 7.7124C108.472 8.30939 109.704 9.32041 110.571 10.6176C111.437 11.9148 111.9 13.4399 111.9 15C111.897 17.0909 111.065 19.0952 109.586 20.5738C108.108 22.0524 106.104 22.8847 104.013 22.8881ZM74.653 2.17505C72.1164 2.17505 69.6368 2.92723 67.5278 4.33646C65.4187 5.74569 63.7749 7.74868 62.8042 10.0921C61.8335 12.4356 61.5796 15.0142 62.0744 17.502C62.5693 19.9898 63.7907 22.275 65.5843 24.0686C67.3779 25.8623 69.6631 27.0837 72.1509 27.5786C74.6387 28.0734 77.2174 27.8196 79.5609 26.8489C81.9044 25.8782 83.9073 24.2343 85.3166 22.1252C86.7258 20.0161 87.478 17.5365 87.478 15C87.474 11.5998 86.1215 8.34009 83.7172 5.9358C81.3129 3.5315 78.0532 2.17902 74.653 2.17505ZM74.653 22.8881C73.1994 22.8888 71.774 22.4878 70.5339 21.7295C69.2939 20.9712 68.2874 19.8851 67.6257 18.591C66.9641 17.2968 66.6728 15.8448 66.7842 14.3956C66.8956 12.9463 67.4052 11.556 68.2569 10.3781C69.1086 9.20031 70.2692 8.28066 71.6105 7.72076C72.9519 7.16085 74.4219 6.98247 75.8582 7.20529C77.2946 7.42812 78.6414 8.04348 79.7501 8.98347C80.8588 9.92345 81.6862 11.1515 82.141 12.532H74.653V17.468H82.141C81.6201 19.0433 80.6165 20.4148 79.2724 21.3876C77.9284 22.3605 76.3122 22.8854 74.653 22.8881Z" fill="#F0F0F0"/>
</svg>
