<svg width="10" height="12" viewBox="0 0 10 12" fill="none" xmlns="http://www.w3.org/2000/svg">
<g clip-path="url(#clip0_2_2)">
<path d="M0.146518 4.39646L4.64627 -0.103293C4.6927 -0.149778 4.74785 -0.186656 4.80854 -0.211817C4.86924 -0.236977 4.9343 -0.249927 5 -0.249927C5.0657 -0.249927 5.13076 -0.236977 5.19146 -0.211817C5.25216 -0.186656 5.3073 -0.149778 5.35373 -0.103293L9.85348 4.39646C9.9473 4.49027 10 4.61751 10 4.75019C10 4.88286 9.9473 5.0101 9.85348 5.10392C9.75967 5.19774 9.63242 5.25044 9.49975 5.25044C9.36708 5.25044 9.23984 5.19773 9.14602 5.10392L5.49997 1.45725L5.49997 11.2498C5.49997 11.3824 5.4473 11.5096 5.35353 11.6034C5.25977 11.6971 5.1326 11.7498 5 11.7498C4.8674 11.7498 4.74023 11.6971 4.64647 11.6034C4.5527 11.5096 4.50003 11.3824 4.50003 11.2498L4.50003 1.45725L0.853979 5.10392C0.760164 5.19773 0.632923 5.25044 0.500249 5.25044C0.367574 5.25044 0.240333 5.19773 0.146518 5.10392C0.052703 5.0101 -1.9914e-06 4.88286 -1.97981e-06 4.75019C-1.96821e-06 4.61751 0.052703 4.49027 0.146518 4.39646Z" fill="white"/>
</g>
<defs>
<clipPath id="clip0_2_2">
<rect width="10" height="12" fill="white"/>
</clipPath>
</defs>
</svg>
